<svg width="288" height="70" viewBox="0 0 288 70" fill="none" xmlns="http://www.w3.org/2000/svg">
<g clip-path="url(#clip0_2002_6437)">
<mask id="mask0_2002_6437" style="mask-type:luminance" maskUnits="userSpaceOnUse" x="0" y="0" width="288" height="70">
<path d="M288 0H0V69.6H288V0Z" fill="white"/>
</mask>
<g mask="url(#mask0_2002_6437)">
<mask id="mask1_2002_6437" style="mask-type:luminance" maskUnits="userSpaceOnUse" x="-25" y="-37" width="338" height="143">
<path d="M-24.3403 105.922H312.307V-36.8921H-24.3403V105.922Z" fill="white"/>
</mask>
<g mask="url(#mask1_2002_6437)">
<path d="M192.034 56.2145C191.268 54.4644 190.378 52.2842 189.948 50.9335C189.642 51.6706 188.446 54.8021 187.832 56.2145H192.034ZM189.795 40.9531H190.072L201.051 63.3686H195.193L193.629 59.9918H186.207L184.673 63.3686H178.814L189.795 40.9531Z" fill="white"/>
</g>
<mask id="mask2_2002_6437" style="mask-type:luminance" maskUnits="userSpaceOnUse" x="-25" y="-37" width="338" height="143">
<path d="M-24.3403 105.922H312.307V-36.8921H-24.3403V105.922Z" fill="white"/>
</mask>
<g mask="url(#mask2_2002_6437)">
<path d="M209.364 45.9887V51.6074H212.186C213.873 51.6074 215.161 50.8098 215.161 48.7826C215.161 46.8489 213.842 45.9887 212.155 45.9887H209.364ZM211.909 41.2598C217.185 41.2598 220.836 43.8083 220.836 48.7826C220.836 51.9758 219.21 54.0954 216.787 55.1702L221.233 63.3683H215.375L211.817 56.0908H209.364V63.3683H203.874V41.2598H211.909Z" fill="white"/>
</g>
<mask id="mask3_2002_6437" style="mask-type:luminance" maskUnits="userSpaceOnUse" x="-25" y="-37" width="338" height="143">
<path d="M-24.3403 105.922H312.307V-36.8921H-24.3403V105.922Z" fill="white"/>
</mask>
<g mask="url(#mask3_2002_6437)">
<path d="M225.067 63.3683V41.2598H239.544V45.9887H230.68V49.9187H238.255V54.4024H230.68V58.6396H240.005V63.3683H225.067Z" fill="white"/>
</g>
<mask id="mask4_2002_6437" style="mask-type:luminance" maskUnits="userSpaceOnUse" x="-25" y="-37" width="338" height="143">
<path d="M-24.3403 105.922H312.307V-36.8921H-24.3403V105.922Z" fill="white"/>
</mask>
<g mask="url(#mask4_2002_6437)">
<path d="M262.548 63.6763L251.23 53.6974L249.451 52.2235V63.3696H243.96V40.9541H244.207L255.432 50.9023C256.044 51.3941 256.627 51.9473 257.242 52.4071V41.2611H262.762V63.6763H262.548Z" fill="white"/>
</g>
<mask id="mask5_2002_6437" style="mask-type:luminance" maskUnits="userSpaceOnUse" x="-25" y="-37" width="338" height="143">
<path d="M-24.3403 105.922H312.307V-36.8921H-24.3403V105.922Z" fill="white"/>
</mask>
<g mask="url(#mask5_2002_6437)">
<path d="M278.772 56.2145C278.004 54.4644 277.116 52.2842 276.686 50.9335C276.379 51.6706 275.184 54.8021 274.569 56.2145H278.772ZM276.533 40.9531H276.809L287.789 63.3686H281.93L280.365 59.9918H272.945L271.409 63.3686H265.55L276.533 40.9531Z" fill="white"/>
</g>
<mask id="mask6_2002_6437" style="mask-type:luminance" maskUnits="userSpaceOnUse" x="-14" y="-17" width="316" height="103">
<path d="M-13.3217 85.3622H301.322V-16.9297H-13.3217V85.3622Z" fill="white"/>
</mask>
<g mask="url(#mask6_2002_6437)">
<path d="M170.154 63.6565H139.687C139.087 63.6565 138.664 63.1635 138.755 62.5683L139.03 60.6901C139.111 60.0961 139.667 59.6079 140.272 59.6079H171.037C171.633 59.6079 172.024 60.0961 171.883 60.6865L171.48 62.5844C171.341 63.176 170.752 63.6565 170.154 63.6565Z" fill="white"/>
</g>
<mask id="mask7_2002_6437" style="mask-type:luminance" maskUnits="userSpaceOnUse" x="-1" y="0" width="289" height="70">
<path d="M288 69.6001H-0.00012207V9.91821e-05H288V69.6001Z" fill="white"/>
</mask>
<g mask="url(#mask7_2002_6437)">
<mask id="mask8_2002_6437" style="mask-type:luminance" maskUnits="userSpaceOnUse" x="-8" y="-12" width="304" height="92">
<path d="M-7.2323 79.052H295.2V-12H-7.2323V79.052Z" fill="white"/>
</mask>
<g mask="url(#mask8_2002_6437)">
<path d="M174.603 12.3754C170.825 12.3754 168.465 9.85875 169.084 6.46955C169.679 3.07914 172.922 0.572366 176.679 0.572366C180.401 0.572366 182.816 3.07914 182.219 6.46955C181.61 9.92528 178.315 12.3754 174.603 12.3754ZM171.574 52.3296H163.685C162.006 52.3296 161.95 52.0548 162.271 50.0904L167.196 21.8713C168.344 15.1619 179.929 15.0916 178.718 21.8713L173.727 50.158C173.393 52.258 173.113 52.3296 171.574 52.3296ZM141.809 23.1986C138.98 23.0519 138.303 23.9442 138.172 24.7564L135.275 41.2476C134.533 45.6585 135.887 47.22 138.649 47.22C141.692 47.22 145.663 43.0728 146.939 35.8802C148.49 26.9882 145.793 23.2688 141.809 23.1986ZM138.781 52.9939C136.824 52.9939 134.946 52.8571 133.453 52.1066L132.034 59.1499C131.748 60.8457 130.957 61.6591 129.533 61.9303L121.639 63.6261C120.025 63.9712 119.686 63.8368 119.957 62.2716L127.187 21.7727C127.449 20.2062 127.93 19.802 129.198 19.3312C133.453 17.7611 138.374 16.9514 142.819 16.9514C154.212 16.9514 161.019 23.0519 159.001 34.8069C157.052 46.0022 148.562 52.9939 138.781 52.9939ZM116.136 50.8987C114.995 52.6711 114.041 52.9334 111.606 52.9334C105.15 52.9334 102.324 48.7999 103.462 42.162L109.786 6.13556C110.402 2.88195 111.48 2.33967 120.778 0.640145C122.201 0.36901 122.333 0.438029 122.061 1.73455L114.921 42.5008C114.583 44.664 115.185 46.4224 117.147 46.9008C118.151 47.178 118.226 47.7141 117.35 49.0082L116.136 50.8987ZM84.4914 22.1473C80.5859 22.1473 76.8027 25.9519 75.063 35.232C73.5841 43.3058 75.2701 47.3037 78.6258 47.3037C82.6158 47.3037 84.0887 42.4269 84.8329 38.5548L87.5987 24.2438C87.8691 22.8178 86.5739 22.1473 84.4914 22.1473ZM95.0067 51.0393C94.9357 51.1034 92.3732 52.396 92.2412 52.396C90.6239 53.2785 89.337 53.0049 88.5375 52.6711C86.9166 51.9969 85.4401 50.3589 84.7657 49.2055C81.3363 52.258 77.9535 52.9334 73.9784 52.9334C65.0154 52.9334 61.1087 46.3548 63.0075 36.048C64.9443 25.5304 73.5181 16.8565 85.1048 16.8565C87.1187 16.8565 89.1474 17.3236 90.4928 18.4821C93.2511 16.6519 96.5605 16.6519 98.8499 17.188C100.064 17.538 100.204 17.9398 99.8514 19.4927L95.9435 39.8462C94.9357 45.2049 95.6067 46.4224 96.7489 48.4548C97.1555 49.0699 96.8077 50.0904 95.0067 51.0393ZM55.6789 51.3806C53.7935 52.4628 50.9617 52.9334 48.6723 52.9334C44.7692 52.9334 42.8739 51.1034 43.611 46.6123L46.7182 28.9207C47.3893 25.12 45.5797 23.4352 43.4053 23.4352C41.8016 23.4352 40.7267 23.9023 39.8463 24.4507C39.2953 24.7896 39.0335 25.2655 38.9684 25.8014L34.5843 50.502C34.3211 52.1212 33.9783 52.3296 32.4419 52.3296H24.4117C22.9291 52.3296 22.874 52.1212 23.1347 50.502L26.7795 29.5999C27.2483 27.1646 28.1139 22.2028 27.7823 19.7626C27.5679 18.678 27.6512 18.4094 28.7934 17.9398C33.2351 15.8336 37.5507 16.7826 38.8424 20.4552C41.3903 18.1419 44.3579 16.8565 48.3356 16.8565C55.8795 16.8565 59.5194 21.6063 58.1629 29.0539L55.2013 46.0183C54.8696 47.8497 55.1317 49.4776 56.073 50.158C56.4843 50.4292 56.4097 50.8987 55.6789 51.3806ZM15.9396 12.3754C12.1749 12.3754 9.80587 9.85875 10.4229 6.48063C11.0265 3.07914 14.2562 0.572366 18.0368 0.572366C21.7354 0.572366 24.1547 3.07914 23.5596 6.48063C22.9438 9.92528 19.6492 12.3754 15.9396 12.3754ZM12.9119 52.3296H5.03481C3.3514 52.3296 3.28286 52.0548 3.60974 50.0904L8.53507 21.8713C9.67612 15.1619 21.2665 15.0916 20.0532 21.8713L15.0703 50.158C14.7361 52.258 14.4668 52.3296 12.9119 52.3296Z" fill="white"/>
</g>
</g>
<path d="M36.7327 59.6792L36.7204 59.6914C16.8869 59.9811 1.48772 67.0786 0.811912 67.3251C0.145899 67.5481 -0.0744745 68.7006 0.549914 68.4934C1.19389 68.2777 15.8988 63.7275 37.313 63.7275H112.855C113.45 63.7275 114.034 63.2322 114.168 62.6456L114.593 60.7477C114.729 60.1573 114.347 59.6792 113.743 59.6792H36.7327Z" fill="white"/>
<mask id="mask9_2002_6437" style="mask-type:luminance" maskUnits="userSpaceOnUse" x="0" y="59" width="115" height="10">
<path d="M36.7317 59.6792L36.7209 59.6914C16.886 59.9811 1.48564 67.0786 0.811059 67.3251C0.14382 67.5481 -0.0753339 68.7006 0.549056 68.4934C1.19303 68.2777 15.898 63.7278 37.312 63.7278H112.855C113.45 63.7278 114.034 63.2334 114.167 62.6456L114.592 60.7477C114.728 60.1573 114.346 59.6792 113.743 59.6792H36.7317Z" fill="white"/>
</mask>
<g mask="url(#mask9_2002_6437)">
<path d="M28.6134 9.62695L118.605 61.9289L86.0243 118.738L-3.95752 66.4433L28.6134 9.62695Z" fill="white"/>
</g>
</g>
</g>
<defs>
<clipPath id="clip0_2002_6437">
<rect width="288" height="69.6" fill="white"/>
</clipPath>
</defs>
</svg>
