<?xml version="1.0" encoding="utf-8"?>
<!-- Generator: Adobe Illustrator 15.0.2, SVG Export Plug-In . SVG Version: 6.00 Build 0)  -->
<!DOCTYPE svg PUBLIC "-//W3C//DTD SVG 1.1//EN" "http://www.w3.org/Graphics/SVG/1.1/DTD/svg11.dtd">
<svg version="1.1" id="Layer_1" xmlns="http://www.w3.org/2000/svg" xmlns:xlink="http://www.w3.org/1999/xlink" x="0px" y="0px"
	 width="180px" height="41.8px" viewBox="0 0 180 41.8" style="enable-background:new 0 0 180 41.8;" xml:space="preserve">
<style type="text/css">
<![CDATA[
	.st0{clip-path:url(#SVGID_10_);fill:#55585A;}
	.st1{fill:#55585A;}
	.st2{clip-path:url(#SVGID_2_);fill:#55585A;}
	.st3{clip-path:url(#SVGID_4_);fill:#55585A;}
	.st4{clip-path:url(#SVGID_6_);fill:#55585A;}
	.st5{clip-path:url(#SVGID_8_);fill:#55585A;}
]]>
</style>
<polygon class="st1" points="20.4,40 22.9,40 22.9,40.9 19.4,40.9 19.4,32.8 20.4,32.8 "/>
<polygon class="st1" points="28.8,29.6 26.7,33.6 25.9,33.3 27.6,29.1 "/>
<rect x="34.3" y="32.8" class="st1" width="1" height="8.1"/>
<polygon class="st1" points="41.6,40.9 40.6,40.9 40.6,33.7 38.7,33.7 38.7,32.8 43.6,32.8 43.6,33.7 41.6,33.7 "/>
<path class="st1" d="M47.3,38.9l-0.9,2h-1.1l3.9-8.4l3.9,8.4H52l-0.9-2H47.3z M49.2,34.7l-1.4,3.3h2.9L49.2,34.7z"/>
<polygon class="st1" points="57.4,40 59.9,40 59.9,40.9 56.4,40.9 56.4,32.8 57.4,32.8 "/>
<rect x="63.2" y="32.8" class="st1" width="1" height="8.1"/>
<path class="st1" d="M69.5,38.9l-0.9,2h-1.1l3.9-8.4l3.9,8.4h-1.1l-0.9-2H69.5z M71.4,34.7l-1.4,3.3h2.9L71.4,34.7z"/>
<polygon class="st1" points="83.2,40.9 84.2,40.9 84.2,34.9 90.3,41.2 90.3,32.8 89.3,32.8 89.3,38.8 83.2,32.4 "/>
<polygon class="st1" points="94.4,32.8 98.8,32.8 98.8,33.7 95.4,33.7 95.4,36 98.7,36 98.7,36.9 95.4,36.9 95.4,40 98.8,40 
	98.8,40.9 94.4,40.9 "/>
<polygon class="st1" points="103.7,40 106.2,40 106.2,40.9 102.7,40.9 102.7,32.8 103.7,32.8 "/>
<g>
	<defs>
		<rect id="SVGID_1_" x="0.6" y="0.5" width="179" height="40.7"/>
	</defs>
	<clipPath id="SVGID_2_">
		<use xlink:href="#SVGID_1_"  style="overflow:visible;"/>
	</clipPath>
	<path class="st2" d="M120.1,34.3c-0.6-0.5-1.4-0.8-2.1-0.8c-1.8,0-3.2,1.5-3.2,3.3c0,1.8,1.4,3.3,3.2,3.3c0.8,0,1.6-0.3,2.2-0.8
		v1.2c-0.6,0.4-1.4,0.6-2.1,0.6c-2.3,0-4.2-1.8-4.2-4.2c0-2.4,1.9-4.3,4.3-4.3c0.7,0,1.4,0.2,2,0.5V34.3z"/>
	<path class="st2" d="M124.9,32.8v4.8c0,1.3,0.4,2.5,2,2.5s2-1.2,2-2.5v-4.8h1v5.1c0,1.8-1.1,3.1-3,3.1s-3-1.4-3-3.1v-5.1H124.9z"/>
	<path class="st2" d="M141.8,36.8c0,2.4-1.9,4.2-4.2,4.2c-2.3,0-4.2-1.8-4.2-4.2c0-2.3,1.9-4.2,4.2-4.2
		C139.9,32.6,141.8,34.5,141.8,36.8 M140.8,36.8c0-1.8-1.3-3.3-3.2-3.3s-3.2,1.5-3.2,3.3c0,1.8,1.5,3.3,3.2,3.3
		C139.3,40.1,140.8,38.7,140.8,36.8"/>
	<path class="st2" d="M150.5,40.9h-1.2l-2.4-3.4h-0.4v3.4h-1v-8.1h1.2c0.7,0,1.5,0,2.1,0.4c0.7,0.4,1.1,1.2,1.1,1.9
		c0,1.2-0.8,2.1-1.9,2.3L150.5,40.9z M146.5,36.6h0.3c1,0,2.1-0.2,2.1-1.5c0-1.3-1.2-1.4-2.2-1.4h-0.3V36.6z"/>
</g>
<polygon class="st1" points="154,32.8 158.3,32.8 158.3,33.7 155,33.7 155,36 158.2,36 158.2,36.9 155,36.9 155,40 158.3,40 
	158.3,40.9 154,40.9 "/>
<g>
	<defs>
		<rect id="SVGID_3_" x="0.6" y="0.5" width="179" height="40.7"/>
	</defs>
	<clipPath id="SVGID_4_">
		<use xlink:href="#SVGID_3_"  style="overflow:visible;"/>
	</clipPath>
	<path class="st3" d="M174.6,12c-1.2-1.2-2.9-2-4.9-2.2c-0.7-0.1-1.6-0.2-2.9-0.3c-2.7-0.2-4.4-0.6-5-1.2c-0.3-0.2-0.5-0.5-0.6-0.8
		C161,7.3,161,7,161,6.6c0-0.9,0.4-1.5,1.3-2.1c0.9-0.6,2-0.9,3.5-0.9c1.4,0,2.7,0.3,4,0.8c1.3,0.5,2.5,1.3,3.7,2.4l0.3,0.3l1.8-2.8
		l-0.2-0.2c-1.5-1.2-3-2.1-4.6-2.7c-1.6-0.6-3.3-0.9-5-0.9c-2.3,0-4.2,0.6-5.7,1.8c-1.5,1.2-2.2,2.7-2.2,4.5c0,1,0.2,1.9,0.8,2.7
		c0.5,0.8,1.2,1.5,2.2,2c1.3,0.6,3.5,1,6.7,1.3c0.7,0,1.1,0.1,1.5,0.1c1.4,0.1,2.4,0.5,3.2,1.1c0.7,0.6,1.1,1.4,1.1,2.4
		c0,1.3-0.5,2.2-1.6,3c-1.1,0.8-2.5,1.2-4.2,1.2c-1.4,0-2.9-0.3-4.3-0.9c-1.5-0.6-2.9-1.5-4.2-2.7l-0.3-0.3l-1.8,2.9l0.2,0.2
		c1.5,1.3,3.2,2.3,4.9,2.9c1.7,0.6,3.6,1,5.6,1h0c2.6,0,4.8-0.7,6.5-2c1.7-1.4,2.5-3.1,2.5-5.2C176.5,14.7,175.9,13.2,174.6,12"/>
	<path class="st3" d="M18.4,12c-1.2-1.2-2.9-2-4.9-2.2c-0.7-0.1-1.6-0.2-2.9-0.3c-2.7-0.2-4.4-0.6-5-1.2C5.2,8.1,5,7.8,4.9,7.6
		C4.8,7.3,4.7,7,4.7,6.6c0-0.9,0.4-1.5,1.3-2.1c0.9-0.6,2-0.9,3.5-0.9c1.4,0,2.7,0.3,4,0.8c1.3,0.5,2.5,1.3,3.7,2.4L17.5,7l1.8-2.8
		L19,4.1c-1.5-1.2-3-2.1-4.6-2.7c-1.6-0.6-3.3-0.9-5-0.9c-2.3,0-4.2,0.6-5.7,1.8C2.3,3.4,1.5,4.9,1.5,6.8c0,1,0.2,1.9,0.7,2.7
		c0.5,0.8,1.2,1.5,2.2,2c1.3,0.6,3.5,1,6.7,1.3c0.7,0,1.2,0.1,1.5,0.1c1.4,0.1,2.4,0.5,3.2,1.1c0.7,0.6,1.1,1.4,1.1,2.4
		c0,1.3-0.5,2.2-1.6,3c-1.1,0.8-2.5,1.2-4.2,1.2c-1.4,0-2.9-0.3-4.3-0.9c-1.5-0.6-2.9-1.5-4.2-2.7l-0.3-0.3l-1.8,2.9l0.2,0.2
		c1.5,1.3,3.2,2.3,4.9,2.9c1.7,0.6,3.6,1,5.6,1h0c2.6,0,4.8-0.7,6.5-2c1.7-1.4,2.5-3.1,2.5-5.2C20.2,14.7,19.6,13.2,18.4,12"/>
	<path class="st3" d="M16.9,1.7c1.6,0.8,3.4,2,4.6,3L21.9,5h3.2v17.4h3.3V5H36V1.7"/>
</g>
<polyline class="st1" points="84.4,9.5 74.9,9.5 74.9,1.7 71.6,1.7 71.6,22.4 74.9,22.4 74.9,12.8 84.4,12.8 84.4,22.4 87.7,22.4 
	87.7,1.7 84.4,1.7 "/>
<g>
	<defs>
		<rect id="SVGID_5_" x="0.6" y="0.5" width="179" height="40.7"/>
	</defs>
	<clipPath id="SVGID_6_">
		<use xlink:href="#SVGID_5_"  style="overflow:visible;"/>
	</clipPath>
	<path class="st4" d="M105.6,4.4c-1.8-2.1-4.2-3.1-7.1-3.1c-2.8,0-5.2,1-7,3.1c-1.8,2-2.7,4.6-2.7,7.7c0,3.1,0.9,5.7,2.7,7.7
		c1.8,2,4.2,3.1,7,3.1h0c2.8,0,5.2-1.1,7-3.1c1.8-2,2.8-4.6,2.8-7.7C108.4,9.1,107.5,6.5,105.6,4.4 M103.1,17.6
		c-1.2,1.4-2.7,2.1-4.6,2.1c-1.9,0-3.3-0.7-4.6-2.1c-1.2-1.4-1.8-3.2-1.8-5.4c0-2.2,0.6-4,1.8-5.4c1.2-1.4,2.7-2.1,4.6-2.1
		c1.9,0,3.3,0.7,4.6,2.1c1.2,1.4,1.8,3.2,1.8,5.4C105,14.4,104.4,16.1,103.1,17.6"/>
	<path class="st4" d="M158.7,22.4c-1.3-0.8-2.7-1.7-4.1-3.3h-7.6V1.7h-3.3v20.7"/>
</g>
<polyline class="st1" points="130,13.1 137.1,13.1 137.1,9.8 130,9.8 130,5 141.8,5 141.8,1.7 126.6,1.7 126.6,22.4 142.5,22.4 
	142.5,19.2 130,19.2 "/>
<polyline class="st1" points="107.4,5 114.9,5 114.9,22.4 118.2,22.4 118.2,5 125.7,5 125.7,1.7 107.4,1.7 "/>
<g>
	<defs>
		<rect id="SVGID_7_" x="0.6" y="0.5" width="179" height="40.7"/>
	</defs>
	<clipPath id="SVGID_8_">
		<use xlink:href="#SVGID_7_"  style="overflow:visible;"/>
	</clipPath>
	<path class="st5" d="M65.6,13.6c1.1-0.3,2-1,2.7-1.9c0.9-1.1,1.3-2.4,1.3-4c0-1.8-0.5-3.3-1.6-4.4c-1.1-1.1-2.6-1.6-4.5-1.6H52.6
		v20.7h3.3v-8.6h6l4.5,8.6h3.7 M63.3,10.5h-7.3V5h7.4c0.9,0,1.6,0.2,2,0.7c0.5,0.5,0.7,1.1,0.7,2.1c0,1-0.3,1.6-0.7,2
		C65,10.3,64.3,10.5,63.3,10.5"/>
</g>
<path class="st1" d="M42.1,1.7h-2.6l-9.2,20.7h3.6l2.4-5.3h9.1l2.4,5.3h3.6 M37.7,13.8l3.1-6.9l3.1,6.9H37.7z"/>
<g>
	<defs>
		<rect id="SVGID_9_" x="0.6" y="0.5" width="179" height="40.7"/>
	</defs>
	<clipPath id="SVGID_10_">
		<use xlink:href="#SVGID_9_"  style="overflow:visible;"/>
	</clipPath>
	<path class="st0" d="M177.7,0.5L177.7,0.5c-1.1,0-1.9,0.8-1.9,1.7c0,1,0.8,1.7,1.9,1.7c1.1,0,1.9-0.7,1.9-1.7
		C179.5,1.2,178.7,0.5,177.7,0.5 M177.7,3.6c-0.8,0-1.4-0.6-1.4-1.4c0-0.7,0.6-1.4,1.4-1.4h0c0.8,0,1.4,0.6,1.4,1.4
		C179.1,3,178.5,3.6,177.7,3.6 M178.1,2.2L178.1,2.2c0.2-0.1,0.4-0.2,0.4-0.4c0-0.2-0.1-0.3-0.2-0.4c-0.1-0.1-0.3-0.1-0.6-0.1
		c-0.3,0-0.5,0-0.7,0.1v1.7h0.4V2.4h0.2c0.2,0,0.3,0.1,0.4,0.3c0.1,0.2,0.1,0.3,0.1,0.4h0.5c-0.1-0.1-0.1-0.2-0.1-0.4
		C178.4,2.4,178.3,2.3,178.1,2.2 M177.6,2.1h-0.2V1.6c0,0,0.1,0,0.2,0c0.3,0,0.4,0.1,0.4,0.3C178,2,177.8,2.1,177.6,2.1"/>
</g>
</svg>
